<svg width="16" height="14" viewBox="0 0 16 14" fill="none" xmlns="http://www.w3.org/2000/svg">
<path d="M10.7803 9.19671L11.0903 8.85495L10.2581 8.09998L9.94809 8.44174L10.7803 9.19671ZM12.1489 8.67032L13.554 9.35128L14.0441 8.34051L12.639 7.65955L12.1489 8.67032ZM13.8819 10.7947L12.9141 11.8616L13.7463 12.6166L14.7142 11.5497L13.8819 10.7947ZM12.3255 12.2117C11.2985 12.3582 8.61625 12.4038 5.57201 9.64216L4.81704 10.4744C8.15145 13.4993 11.188 13.509 12.4846 13.3239L12.3255 12.2117ZM5.57201 9.64216C2.66868 7.00831 2.09778 4.70323 1.99217 3.69918L0.874654 3.81614C1.00881 5.09086 1.7051 7.65128 4.81704 10.4744L5.57201 9.64216ZM6.34182 5.17019L6.53711 4.95492L5.70489 4.19995L5.5096 4.41522L6.34182 5.17019ZM6.57404 2.30314L5.61189 1.13395L4.74407 1.84862L5.70622 3.01781L6.57404 2.30314ZM2.5235 1.0175L1.45395 2.19647L2.28617 2.95145L3.35571 1.77247L2.5235 1.0175ZM5.92571 4.7927C5.5096 4.41522 5.5091 4.41577 5.5086 4.41633L5.50054 4.4252L5.46904 4.46439C5.39967 4.56062 5.34597 4.66722 5.30994 4.78025C5.23396 5.03481 5.22499 5.30468 5.2839 5.56373C5.41133 6.18807 5.8817 6.99407 7.02961 8.03543L7.78458 7.20321C6.7138 6.23181 6.44292 5.62399 6.38447 5.33835C6.35717 5.20232 6.3757 5.13619 6.38032 5.12218C6.38347 5.11425 6.38295 5.11445 6.37876 5.12279C6.37041 5.13684 6.36056 5.14995 6.34937 5.16187L6.34283 5.16908C6.34232 5.16964 6.34182 5.17019 5.92571 4.7927ZM7.02961 8.03543C8.17807 9.07729 9.02537 9.46667 9.65914 9.53287C9.98323 9.56695 10.2416 9.51513 10.4364 9.43088C10.5454 9.38405 10.6463 9.32025 10.7353 9.24186L10.7712 9.2067L10.7793 9.19782C10.7793 9.19782 10.7803 9.19671 10.3642 8.81922C9.94809 8.44174 9.94809 8.44174 9.9491 8.44063L9.95212 8.4373L9.99168 8.40037C9.99957 8.39539 9.99956 8.39504 9.99163 8.39932C9.92234 8.42212 9.84853 8.42771 9.77659 8.41561C9.48661 8.38518 8.85592 8.17511 7.78458 7.20321L7.02961 8.03543ZM5.61189 1.13395C4.82613 0.178377 3.36403 0.0909673 2.5235 1.0175L3.35571 1.77247C3.70703 1.38522 4.36688 1.3881 4.74402 1.84757L5.61189 1.13395ZM1.99217 3.69918C1.96713 3.45699 2.06471 3.19556 2.28617 2.95145L1.45395 2.19647C1.08502 2.60315 0.805447 3.16776 0.874654 3.81614L1.99217 3.69918ZM12.9141 11.8616C12.7293 12.0653 12.5293 12.1821 12.3255 12.2117L12.4846 13.3239C13.016 13.2477 13.4388 12.9556 13.7463 12.6166L12.9141 11.8616ZM6.53711 4.95492C7.21507 4.20759 7.21268 3.07973 6.57404 2.30314L5.70622 3.01781C6.00834 3.38494 5.98977 3.88593 5.70489 4.19995L6.53711 4.95492ZM13.5529 9.35133C14.1411 9.63718 14.2665 10.3709 13.8819 10.7947L14.7142 11.5497C15.6367 10.5328 15.2597 8.93046 14.0441 8.34157L13.5529 9.35133ZM11.0903 8.85495C11.3445 8.57477 11.7709 8.4872 12.1489 8.67032L12.639 7.65955C11.8314 7.26877 10.8621 7.4342 10.2581 8.09998L11.0903 8.85495Z" fill="#838383"/>
</svg>
