<svg width="15" height="11" viewBox="0 0 15 11" fill="none" xmlns="http://www.w3.org/2000/svg">
<path d="M12.4863 0.000244141C13.0665 0.000244141 13.6229 0.223114 14.0331 0.619826C14.4434 1.01654 14.6738 1.55459 14.6738 2.11563V8.88486C14.6738 9.4459 14.4434 9.98395 14.0331 10.3807C13.6229 10.7774 13.0665 11.0002 12.4863 11.0002H2.86133C2.28117 11.0002 1.72477 10.7774 1.31453 10.3807C0.904296 9.98395 0.673828 9.4459 0.673828 8.88486V2.11563C0.673828 1.55459 0.904296 1.01654 1.31453 0.619826C1.72477 0.223114 2.28117 0.000244141 2.86133 0.000244141H12.4863ZM13.7988 3.35186L7.89608 6.71109C7.84027 6.74277 7.77789 6.76209 7.71344 6.76765C7.64898 6.77321 7.58405 6.76488 7.52333 6.74324L7.45158 6.71109L1.54883 3.35355V8.88486C1.54883 9.22148 1.68711 9.54431 1.93325 9.78234C2.17939 10.0204 2.51323 10.1541 2.86133 10.1541H12.4863C12.8344 10.1541 13.1683 10.0204 13.4144 9.78234C13.6605 9.54431 13.7988 9.22148 13.7988 8.88486V3.35186ZM12.4863 0.846398H2.86133C2.51323 0.846398 2.17939 0.98012 1.93325 1.21815C1.68711 1.45617 1.54883 1.77901 1.54883 2.11563V2.37117L7.67383 5.85563L13.7988 2.36948V2.11563C13.7988 1.77901 13.6605 1.45617 13.4144 1.21815C13.1683 0.98012 12.8344 0.846398 12.4863 0.846398Z" fill="#838383"/>
</svg>
